Coordinates
version=1
nRows=54
nColumns=12
inDegrees=yes

Units are S.I. units (second, meters, Newtons, ...)
Angles are in degrees

endheader
time	SC_y	SC_z	SC_x	AC_y	AC_z	AC_x	GH_y	GH_z	GH_yy	EL_x	PS_y
       0.0              -20.19          22.57          6.596          35.46         -9.748          15.83         -35.35          15.76         -174.5           24.4          132.3
 0.0009619              -20.19          22.58          6.598          35.46         -9.749          15.83         -35.35          15.76         -174.5           24.4          132.3
  0.001924              -20.19          22.58            6.6          35.46          -9.75          15.83         -35.36          15.76         -174.5          24.41          132.3
  0.002886              -20.19          22.58          6.602          35.46         -9.751          15.82         -35.36          15.76         -174.4          24.42          132.3
  0.003847               -20.2          22.58          6.604          35.46         -9.751          15.82         -35.36          15.76         -174.4          24.43          132.2
  0.004809               -20.2          22.58          6.607          35.46         -9.752          15.82         -35.37          15.76         -174.4          24.44          132.2
  0.005771               -20.2          22.59           6.61          35.46         -9.753          15.82         -35.37          15.76         -174.4          24.45          132.2
  0.006733              -20.21          22.59          6.612          35.46         -9.754          15.81         -35.38          15.76         -174.4          24.46          132.2
  0.007695              -20.21          22.59          6.615          35.46         -9.756          15.81         -35.38          15.77         -174.4          24.47          132.2
  0.008657              -20.21           22.6          6.619          35.46         -9.757          15.81         -35.39          15.77         -174.3          24.48          132.2
  0.009619              -20.22           22.6          6.622          35.46         -9.758          15.81         -35.39          15.77         -174.3           24.5          132.2
   0.01058              -20.22           22.6          6.626          35.46          -9.76           15.8          -35.4          15.77         -174.3          24.51          132.1
   0.01154              -20.22          22.61           6.63          35.46         -9.761           15.8         -35.41          15.77         -174.3          24.53          132.1
    0.0125              -20.23          22.61          6.634          35.46         -9.763          15.79         -35.42          15.77         -174.2          24.54          132.1
   0.01347              -20.23          22.61          6.639          35.46         -9.765          15.79         -35.42          15.77         -174.2          24.56          132.1
   0.01443              -20.24          22.62          6.644          35.46         -9.766          15.78         -35.43          15.77         -174.2          24.58          132.1
   0.01539              -20.25          22.62           6.65          35.46         -9.769          15.78         -35.44          15.78         -174.1           24.6          132.0
   0.01635              -20.25          22.63          6.656          35.46         -9.771          15.77         -35.45          15.78         -174.1          24.63          132.0
   0.01731              -20.26          22.64          6.662          35.47         -9.773          15.77         -35.46          15.78         -174.1          24.65          132.0
   0.01828              -20.27          22.64           6.67          35.47         -9.776          15.76         -35.48          15.78         -174.0          24.68          132.0
   0.01924              -20.28          22.65          6.678          35.47         -9.779          15.75         -35.49          15.79         -174.0          24.71          131.9
    0.0202              -20.29          22.66          6.686          35.47         -9.783          15.74         -35.51          15.79         -173.9          24.75          131.9
   0.02116               -20.3          22.67          6.696          35.47         -9.786          15.74         -35.52          15.79         -173.9          24.78          131.8
   0.02212              -20.31          22.68          6.707          35.47          -9.79          15.73         -35.54          15.79         -173.8          24.82          131.8
   0.02308              -20.32          22.69          6.719          35.47         -9.795          15.71         -35.56           15.8         -173.7          24.87          131.7
   0.02405              -20.34           22.7          6.732          35.47           -9.8           15.7         -35.59           15.8         -173.6          24.92          131.7
   0.02501              -20.35          22.72          6.747          35.48         -9.806          15.69         -35.61          15.81         -173.6          24.98          131.6
   0.02597              -20.37          22.73          6.763          35.48         -9.812          15.67         -35.64          15.81         -173.5          25.04          131.5
   0.02693              -20.39          22.75          6.782          35.48         -9.819          15.65         -35.67          15.82         -173.3          25.12          131.4
   0.02789              -20.42          22.77          6.804          35.48         -9.827          15.63         -35.71          15.83         -173.2           25.2          131.4
   0.02886              -20.44          22.79          6.828          35.49         -9.837          15.61         -35.75          15.83         -173.1           25.3          131.2
   0.02982              -20.47          22.82          6.857          35.49         -9.847          15.58          -35.8          15.84         -172.9          25.41          131.1
   0.03078              -20.51          22.85          6.889          35.49          -9.86          15.55         -35.86          15.85         -172.7          25.53          131.0
   0.03174              -20.55          22.88          6.927           35.5         -9.874          15.52         -35.92          15.86         -172.5          25.68          130.8
    0.0327               -20.6          22.93          6.971           35.5         -9.891          15.48          -36.0          15.88         -172.2          25.85          130.6
   0.03367              -20.65          22.97          7.023          35.51         -9.911          15.43         -36.09          15.89         -171.9          26.05          130.4
   0.03463              -20.72          23.03          7.085          35.52         -9.934          15.37          -36.2          15.91         -171.5          26.29          130.1
   0.03559               -20.8           23.1          7.159          35.53         -9.962           15.3         -36.33          15.94         -171.0          26.58          129.8
   0.03655               -20.9          23.19          7.249          35.54         -9.997          15.21         -36.48          15.96         -170.5          26.93          129.4
   0.03751              -21.02          23.29          7.358          35.55         -10.04          15.11         -36.67           16.0         -169.8          27.35          128.9
   0.03847              -21.17          23.42          7.494          35.57         -10.09          14.98         -36.91          16.04         -169.0          27.88          128.3
   0.03944              -21.35          23.57          7.662          35.59         -10.15          14.82          -37.2          16.09         -167.9          28.53          127.5
    0.0404              -21.59          23.77          7.875          35.62         -10.23          14.62         -37.57          16.16         -166.6          29.36          126.6
   0.04136              -21.88          24.03          8.145          35.65         -10.34          14.37         -38.04          16.25         -165.0           30.4          125.4
   0.04232              -22.26          24.35          8.491          35.69         -10.47          14.04         -38.64          16.36         -162.9          31.74          123.8
   0.04328              -22.74          24.77          8.934          35.75         -10.64          13.62         -39.41          16.49         -160.2          33.46          121.9
   0.04425              -23.36           25.3          9.501          35.82         -10.85          13.09          -40.4          16.67         -156.7          35.66          119.3
   0.04521              -24.14          25.96          10.21          35.91         -11.12          12.41         -41.63           16.9         -152.3          38.43          116.1
   0.04617              -25.09          26.78          11.08          36.02         -11.45          11.59         -43.14          17.17         -147.0           41.8          112.3
   0.04713              -26.19          27.72          12.09          36.15         -11.84          10.64         -44.89          17.49         -140.9           45.7          107.8
   0.04809              -27.39          28.74          13.18          36.28         -12.25          9.616         -46.79          17.83         -134.2          49.93          102.9
   0.04905              -28.58          29.76          14.27          36.42         -12.67          8.587         -48.68          18.17         -127.5          54.16          98.07
   0.05002              -29.68          30.71          15.27          36.54         -13.05          7.637         -50.43          18.49         -121.3          58.06          93.58
   0.05098              -30.63          31.52          16.14          36.65         -13.38          6.817         -51.94          18.76         -116.0          61.43          89.71
